<svg version="1.0" preserveAspectRatio="xMidYMid meet" viewBox="3.2381249999999997 33.3599986656 67.2 13.349999465999998" zoomAndPan="magnify" xmlns:xlink="http://www.w3.org/1999/xlink" xmlns="http://www.w3.org/2000/svg" style="max-height: 500px" width="67.2" height="13.349999465999998"><defs><g/></defs><g fill-opacity="1" fill="#ffffff"><g transform="translate(3.620208, 44.220579)"><g><path d="M 7.21875 -9.671875 C 7.28125 -9.710938 7.320312 -9.726562 7.34375 -9.71875 C 7.363281 -9.71875 7.390625 -9.691406 7.421875 -9.640625 C 7.660156 -9.273438 7.726562 -8.882812 7.625 -8.46875 C 7.570312 -8.28125 7.5 -8.101562 7.40625 -7.9375 C 7.3125 -7.78125 7.203125 -7.671875 7.078125 -7.609375 C 7.003906 -7.585938 6.957031 -7.578125 6.9375 -7.578125 C 6.894531 -7.578125 6.828125 -7.59375 6.734375 -7.625 C 6.648438 -7.65625 6.503906 -7.726562 6.296875 -7.84375 C 6.066406 -7.96875 5.804688 -8.082031 5.515625 -8.1875 C 5.234375 -8.289062 4.953125 -8.34375 4.671875 -8.34375 C 4.359375 -8.34375 4.0625 -8.28125 3.78125 -8.15625 C 3.5 -8.03125 3.242188 -7.863281 3.015625 -7.65625 C 2.785156 -7.445312 2.59375 -7.203125 2.4375 -6.921875 C 2.28125 -6.648438 2.164062 -6.363281 2.09375 -6.0625 C 2.070312 -6 2.054688 -5.945312 2.046875 -5.90625 L 2.046875 -5.78125 C 1.972656 -5.5625 1.953125 -5.265625 1.984375 -4.890625 C 1.992188 -4.316406 2.066406 -3.78125 2.203125 -3.28125 C 2.347656 -2.789062 2.523438 -2.398438 2.734375 -2.109375 C 2.785156 -2.054688 2.832031 -2 2.875 -1.9375 C 2.925781 -1.882812 2.972656 -1.835938 3.015625 -1.796875 C 3.242188 -1.609375 3.5 -1.453125 3.78125 -1.328125 C 4.0625 -1.203125 4.351562 -1.140625 4.65625 -1.140625 C 4.8125 -1.140625 4.992188 -1.164062 5.203125 -1.21875 C 5.410156 -1.269531 5.601562 -1.335938 5.78125 -1.421875 C 5.96875 -1.515625 6.132812 -1.628906 6.28125 -1.765625 C 6.425781 -1.910156 6.519531 -2.070312 6.5625 -2.25 C 6.59375 -2.375 6.609375 -2.675781 6.609375 -3.15625 L 6.609375 -3.921875 L 5.59375 -3.921875 C 5.007812 -3.910156 4.703125 -3.914062 4.671875 -3.9375 L 4.625 -3.953125 L 4.640625 -4.140625 C 4.648438 -4.441406 4.726562 -4.703125 4.875 -4.921875 C 4.976562 -5.046875 5.0625 -5.117188 5.125 -5.140625 C 5.195312 -5.171875 5.601562 -5.1875 6.34375 -5.1875 C 6.707031 -5.1875 6.972656 -5.1875 7.140625 -5.1875 C 7.316406 -5.195312 7.441406 -5.207031 7.515625 -5.21875 C 7.640625 -5.226562 7.742188 -5.234375 7.828125 -5.234375 C 7.921875 -5.234375 7.984375 -5.222656 8.015625 -5.203125 C 8.140625 -5.140625 8.222656 -5.0625 8.265625 -4.96875 C 8.285156 -4.957031 8.296875 -4.84375 8.296875 -4.625 C 8.296875 -4.507812 8.285156 -4.421875 8.265625 -4.359375 C 8.242188 -4.296875 8.222656 -4.238281 8.203125 -4.1875 C 8.191406 -4.175781 8.164062 -4.148438 8.125 -4.109375 C 8.082031 -4.066406 8.046875 -4.007812 8.015625 -3.9375 L 7.984375 -3.875 L 7.984375 -3.0625 C 7.984375 -2.445312 7.96875 -2.023438 7.9375 -1.796875 C 7.914062 -1.734375 7.90625 -1.675781 7.90625 -1.625 C 7.90625 -1.582031 7.90625 -1.535156 7.90625 -1.484375 C 7.90625 -1.453125 7.914062 -1.421875 7.9375 -1.390625 L 8.03125 -1.390625 C 8.082031 -1.398438 8.117188 -1.394531 8.140625 -1.375 C 8.171875 -1.332031 8.195312 -1.179688 8.21875 -0.921875 C 8.226562 -0.679688 8.21875 -0.484375 8.1875 -0.328125 C 8.1875 -0.296875 8.175781 -0.269531 8.15625 -0.25 C 8.144531 -0.226562 8.117188 -0.210938 8.078125 -0.203125 C 8.035156 -0.191406 7.96875 -0.1875 7.875 -0.1875 C 7.789062 -0.1875 7.664062 -0.1875 7.5 -0.1875 C 7.28125 -0.1875 7.132812 -0.1875 7.0625 -0.1875 C 7 -0.1875 6.953125 -0.191406 6.921875 -0.203125 C 6.878906 -0.210938 6.828125 -0.269531 6.765625 -0.375 L 6.703125 -0.46875 L 6.65625 -0.421875 C 6.570312 -0.335938 6.472656 -0.273438 6.359375 -0.234375 C 6.242188 -0.203125 6.125 -0.171875 6 -0.140625 C 5.757812 -0.046875 5.507812 0.0078125 5.25 0.03125 C 5 0.0507812 4.75 0.0625 4.5 0.0625 C 4 0.0625 3.503906 -0.0234375 3.015625 -0.203125 C 2.535156 -0.390625 2.117188 -0.660156 1.765625 -1.015625 C 1.265625 -1.546875 0.9375 -2.128906 0.78125 -2.765625 C 0.625 -3.398438 0.535156 -4.0625 0.515625 -4.75 C 0.503906 -5.375 0.550781 -5.90625 0.65625 -6.34375 C 0.757812 -6.789062 0.929688 -7.207031 1.171875 -7.59375 C 1.453125 -8.039062 1.78125 -8.410156 2.15625 -8.703125 C 2.238281 -8.765625 2.28125 -8.796875 2.28125 -8.796875 C 2.289062 -8.804688 2.328125 -8.828125 2.390625 -8.859375 C 2.429688 -8.898438 2.460938 -8.929688 2.484375 -8.953125 C 2.835938 -9.171875 3.175781 -9.335938 3.5 -9.453125 C 3.820312 -9.578125 4.195312 -9.648438 4.625 -9.671875 C 5.03125 -9.671875 5.421875 -9.640625 5.796875 -9.578125 C 5.804688 -9.578125 5.84375 -9.566406 5.90625 -9.546875 C 5.976562 -9.523438 6.046875 -9.515625 6.109375 -9.515625 C 6.222656 -9.484375 6.335938 -9.46875 6.453125 -9.46875 C 6.585938 -9.46875 6.707031 -9.484375 6.8125 -9.515625 C 6.90625 -9.554688 6.984375 -9.582031 7.046875 -9.59375 C 7.109375 -9.613281 7.164062 -9.640625 7.21875 -9.671875 Z M 7.21875 -9.671875"/></g></g></g><g fill-opacity="1" fill="#ffffff"><g transform="translate(12.42405, 44.220579)"><g><path d="M 0.828125 -9.96875 C 0.890625 -10 0.921875 -10.015625 0.921875 -10.015625 C 0.941406 -10.015625 0.992188 -10 1.078125 -9.96875 C 1.171875 -9.9375 1.269531 -9.90625 1.375 -9.875 C 1.488281 -9.84375 1.585938 -9.804688 1.671875 -9.765625 C 1.765625 -9.734375 1.828125 -9.710938 1.859375 -9.703125 C 2.109375 -9.609375 2.242188 -9.53125 2.265625 -9.46875 C 2.285156 -9.445312 2.296875 -9.398438 2.296875 -9.328125 C 2.296875 -9.242188 2.265625 -9.085938 2.203125 -8.859375 L 2.15625 -8.6875 L 2.15625 -6.46875 C 2.15625 -6.070312 2.15625 -5.660156 2.15625 -5.234375 C 2.15625 -4.804688 2.15625 -4.398438 2.15625 -4.015625 C 2.164062 -3.628906 2.175781 -3.273438 2.1875 -2.953125 C 2.195312 -2.640625 2.207031 -2.398438 2.21875 -2.234375 C 2.226562 -2.015625 2.234375 -1.84375 2.234375 -1.71875 C 2.234375 -1.59375 2.238281 -1.5 2.25 -1.4375 C 2.257812 -1.226562 2.265625 -1.0625 2.265625 -0.9375 C 2.265625 -0.8125 2.269531 -0.738281 2.28125 -0.71875 L 2.296875 -0.390625 L 2.25 -0.265625 C 2.15625 -0.0546875 2.085938 0.0625 2.046875 0.09375 C 2.035156 0.125 1.96875 0.125 1.84375 0.09375 C 1.476562 0.0390625 1.203125 -0.0195312 1.015625 -0.09375 C 0.972656 -0.132812 0.914062 -0.203125 0.84375 -0.296875 C 0.78125 -0.390625 0.710938 -0.488281 0.640625 -0.59375 C 0.578125 -0.707031 0.519531 -0.816406 0.46875 -0.921875 C 0.425781 -1.023438 0.40625 -1.097656 0.40625 -1.140625 C 0.40625 -1.171875 0.421875 -1.191406 0.453125 -1.203125 C 0.484375 -1.222656 0.554688 -1.238281 0.671875 -1.25 C 0.796875 -1.28125 0.859375 -1.296875 0.859375 -1.296875 C 0.859375 -1.296875 0.867188 -1.671875 0.890625 -2.421875 C 0.890625 -2.941406 0.890625 -3.453125 0.890625 -3.953125 C 0.890625 -4.460938 0.890625 -4.921875 0.890625 -5.328125 C 0.890625 -5.734375 0.882812 -6.070312 0.875 -6.34375 C 0.863281 -6.613281 0.851562 -6.789062 0.84375 -6.875 C 0.832031 -6.914062 0.828125 -7 0.828125 -7.125 C 0.828125 -7.257812 0.820312 -7.4375 0.8125 -7.65625 C 0.789062 -7.882812 0.78125 -8.054688 0.78125 -8.171875 C 0.78125 -8.296875 0.78125 -8.375 0.78125 -8.40625 C 0.757812 -8.457031 0.742188 -8.632812 0.734375 -8.9375 L 0.734375 -9.40625 L 0.671875 -9.484375 C 0.554688 -9.648438 0.554688 -9.785156 0.671875 -9.890625 C 0.703125 -9.921875 0.753906 -9.945312 0.828125 -9.96875 Z M 0.828125 -9.96875"/></g></g></g><g fill-opacity="1" fill="#ffffff"><g transform="translate(15.492819, 44.220579)"><g><path d="M 3.390625 -5.9375 C 3.742188 -5.9375 4.097656 -5.890625 4.453125 -5.796875 C 4.804688 -5.703125 5.109375 -5.507812 5.359375 -5.21875 C 5.554688 -5.019531 5.710938 -4.789062 5.828125 -4.53125 C 5.941406 -4.28125 6.015625 -3.992188 6.046875 -3.671875 C 6.085938 -3.421875 6.097656 -3.1875 6.078125 -2.96875 C 6.054688 -2.707031 6.035156 -2.566406 6.015625 -2.546875 C 6.003906 -2.535156 5.296875 -2.53125 3.890625 -2.53125 C 2.492188 -2.53125 1.796875 -2.519531 1.796875 -2.5 C 1.773438 -2.425781 1.804688 -2.25 1.890625 -1.96875 C 2.097656 -1.257812 2.5625 -0.878906 3.28125 -0.828125 C 3.644531 -0.828125 4.03125 -0.882812 4.4375 -1 C 4.851562 -1.113281 5.195312 -1.296875 5.46875 -1.546875 C 5.5 -1.566406 5.519531 -1.585938 5.53125 -1.609375 C 5.550781 -1.628906 5.566406 -1.644531 5.578125 -1.65625 C 5.640625 -1.675781 5.6875 -1.664062 5.71875 -1.625 C 5.71875 -1.625 5.726562 -1.585938 5.75 -1.515625 C 5.78125 -1.441406 5.8125 -1.359375 5.84375 -1.265625 C 5.875 -1.179688 5.898438 -1.097656 5.921875 -1.015625 C 5.953125 -0.929688 5.972656 -0.875 5.984375 -0.84375 C 6.015625 -0.71875 6.007812 -0.613281 5.96875 -0.53125 C 5.90625 -0.414062 5.769531 -0.316406 5.5625 -0.234375 C 5.351562 -0.160156 5.125 -0.0976562 4.875 -0.046875 C 4.625 -0.00390625 4.367188 0.0195312 4.109375 0.03125 C 3.859375 0.0507812 3.664062 0.0625 3.53125 0.0625 C 2.863281 0.0625 2.300781 -0.046875 1.84375 -0.265625 C 1.382812 -0.492188 1.019531 -0.929688 0.75 -1.578125 C 0.664062 -1.796875 0.59375 -2.019531 0.53125 -2.25 C 0.476562 -2.488281 0.445312 -2.738281 0.4375 -3 C 0.4375 -3.113281 0.4375 -3.207031 0.4375 -3.28125 C 0.4375 -3.363281 0.445312 -3.4375 0.46875 -3.5 C 0.507812 -3.832031 0.625 -4.144531 0.8125 -4.4375 C 1 -4.738281 1.226562 -5 1.5 -5.21875 C 1.769531 -5.4375 2.066406 -5.609375 2.390625 -5.734375 C 2.722656 -5.867188 3.054688 -5.9375 3.390625 -5.9375 Z M 3.234375 -5.046875 C 2.972656 -5.046875 2.75 -4.984375 2.5625 -4.859375 C 2.375 -4.742188 2.207031 -4.585938 2.0625 -4.390625 C 1.90625 -4.148438 1.800781 -3.835938 1.75 -3.453125 L 1.734375 -3.390625 L 4.828125 -3.390625 L 4.8125 -3.484375 C 4.757812 -4.003906 4.613281 -4.394531 4.375 -4.65625 C 4.144531 -4.914062 3.765625 -5.046875 3.234375 -5.046875 Z M 3.234375 -5.046875"/></g></g></g><g fill-opacity="1" fill="#ffffff"><g transform="translate(22.032818, 44.220579)"><g><path d="M 3.015625 -5.953125 C 3.023438 -5.960938 3.203125 -5.96875 3.546875 -5.96875 C 3.972656 -5.945312 4.34375 -5.894531 4.65625 -5.8125 C 4.976562 -5.726562 5.320312 -5.554688 5.6875 -5.296875 C 5.8125 -5.191406 5.898438 -5.109375 5.953125 -5.046875 C 6.003906 -4.984375 6.046875 -4.890625 6.078125 -4.765625 C 6.128906 -4.628906 6.15625 -4.3125 6.15625 -3.8125 C 6.164062 -3.570312 6.171875 -3.351562 6.171875 -3.15625 C 6.171875 -2.957031 6.175781 -2.769531 6.1875 -2.59375 C 6.195312 -2.375 6.203125 -2.1875 6.203125 -2.03125 C 6.203125 -1.875 6.207031 -1.734375 6.21875 -1.609375 C 6.226562 -1.453125 6.238281 -1.328125 6.25 -1.234375 C 6.257812 -1.148438 6.265625 -1.097656 6.265625 -1.078125 C 6.285156 -1.003906 6.304688 -0.957031 6.328125 -0.9375 C 6.359375 -0.925781 6.425781 -0.914062 6.53125 -0.90625 C 6.664062 -0.894531 6.753906 -0.875 6.796875 -0.84375 C 6.816406 -0.78125 6.773438 -0.664062 6.671875 -0.5 C 6.609375 -0.351562 6.582031 -0.273438 6.59375 -0.265625 C 6.601562 -0.222656 6.546875 -0.164062 6.421875 -0.09375 C 6.378906 -0.0703125 6.3125 -0.0507812 6.21875 -0.03125 C 6.125 -0.0078125 6.023438 0.0078125 5.921875 0.03125 C 5.828125 0.0507812 5.726562 0.0664062 5.625 0.078125 C 5.53125 0.0859375 5.445312 0.09375 5.375 0.09375 C 5.175781 0.09375 5.070312 -0.0078125 5.0625 -0.21875 L 5.03125 -0.375 L 5 -0.328125 C 4.90625 -0.242188 4.773438 -0.171875 4.609375 -0.109375 C 4.453125 -0.046875 4.285156 0 4.109375 0.03125 C 3.929688 0.0703125 3.753906 0.101562 3.578125 0.125 C 3.398438 0.144531 3.253906 0.15625 3.140625 0.15625 C 2.816406 0.144531 2.5 0.101562 2.1875 0.03125 C 1.882812 -0.03125 1.609375 -0.132812 1.359375 -0.28125 C 1.109375 -0.425781 0.90625 -0.617188 0.75 -0.859375 C 0.59375 -1.109375 0.503906 -1.414062 0.484375 -1.78125 C 0.460938 -2.238281 0.546875 -2.582031 0.734375 -2.8125 C 0.878906 -2.988281 1.050781 -3.140625 1.25 -3.265625 C 1.445312 -3.390625 1.65625 -3.5 1.875 -3.59375 C 2.164062 -3.6875 2.523438 -3.753906 2.953125 -3.796875 C 3.390625 -3.847656 3.796875 -3.863281 4.171875 -3.84375 C 4.359375 -3.820312 4.503906 -3.800781 4.609375 -3.78125 C 4.722656 -3.769531 4.796875 -3.765625 4.828125 -3.765625 L 4.859375 -3.765625 C 4.878906 -3.796875 4.863281 -3.914062 4.8125 -4.125 C 4.757812 -4.394531 4.65625 -4.59375 4.5 -4.71875 C 4.382812 -4.820312 4.226562 -4.921875 4.03125 -5.015625 C 3.84375 -5.054688 3.632812 -5.078125 3.40625 -5.078125 C 3.207031 -5.078125 3 -5.054688 2.78125 -5.015625 C 2.570312 -4.984375 2.382812 -4.898438 2.21875 -4.765625 C 2.070312 -4.640625 1.953125 -4.578125 1.859375 -4.578125 C 1.742188 -4.578125 1.582031 -4.640625 1.375 -4.765625 C 1.269531 -4.828125 1.207031 -4.875 1.1875 -4.90625 C 1.175781 -4.9375 1.1875 -4.988281 1.21875 -5.0625 C 1.300781 -5.21875 1.4375 -5.359375 1.625 -5.484375 C 1.8125 -5.640625 2.03125 -5.75 2.28125 -5.8125 C 2.53125 -5.875 2.773438 -5.921875 3.015625 -5.953125 Z M 4.046875 -2.9375 C 3.941406 -2.945312 3.773438 -2.953125 3.546875 -2.953125 C 3.328125 -2.953125 3.144531 -2.945312 3 -2.9375 C 2.707031 -2.914062 2.4375 -2.835938 2.1875 -2.703125 C 1.9375 -2.578125 1.785156 -2.359375 1.734375 -2.046875 C 1.679688 -1.753906 1.734375 -1.484375 1.890625 -1.234375 C 2.035156 -1.015625 2.222656 -0.867188 2.453125 -0.796875 C 2.679688 -0.734375 2.921875 -0.703125 3.171875 -0.703125 C 3.265625 -0.703125 3.351562 -0.707031 3.4375 -0.71875 C 3.53125 -0.726562 3.601562 -0.738281 3.65625 -0.75 C 4.039062 -0.84375 4.335938 -1 4.546875 -1.21875 C 4.753906 -1.445312 4.859375 -1.757812 4.859375 -2.15625 L 4.859375 -2.484375 L 4.796875 -2.5625 C 4.785156 -2.625 4.757812 -2.664062 4.71875 -2.6875 C 4.582031 -2.800781 4.359375 -2.882812 4.046875 -2.9375 Z M 4.046875 -2.9375"/></g></g></g><g fill-opacity="1" fill="#ffffff"><g transform="translate(29.109432, 44.220579)"><g><path d="M 0.9375 -6.015625 L 1.015625 -6.015625 C 1.617188 -5.890625 2.046875 -5.722656 2.296875 -5.515625 L 2.375 -5.4375 L 2.375 -5.3125 C 2.375 -5.25 2.363281 -5.160156 2.34375 -5.046875 C 2.332031 -5.003906 2.320312 -4.972656 2.3125 -4.953125 C 2.3125 -4.929688 2.3125 -4.914062 2.3125 -4.90625 C 2.320312 -4.914062 2.332031 -4.921875 2.34375 -4.921875 C 2.351562 -4.941406 2.359375 -4.957031 2.359375 -4.96875 C 2.367188 -4.976562 2.378906 -4.988281 2.390625 -5 C 2.492188 -5.101562 2.59375 -5.203125 2.6875 -5.296875 C 2.78125 -5.398438 2.882812 -5.488281 3 -5.5625 C 3.445312 -5.851562 3.878906 -6 4.296875 -6 C 4.398438 -6 4.484375 -5.992188 4.546875 -5.984375 C 4.972656 -5.929688 5.296875 -5.757812 5.515625 -5.46875 C 5.660156 -5.289062 5.734375 -5.160156 5.734375 -5.078125 C 5.734375 -5.066406 5.738281 -5.0625 5.75 -5.0625 C 5.757812 -5.0625 5.816406 -5.113281 5.921875 -5.21875 C 6.128906 -5.414062 6.351562 -5.570312 6.59375 -5.6875 C 6.84375 -5.8125 7.066406 -5.890625 7.265625 -5.921875 C 7.460938 -5.960938 7.71875 -5.972656 8.03125 -5.953125 C 8.78125 -5.910156 9.226562 -5.769531 9.375 -5.53125 C 9.414062 -5.476562 9.4375 -5.351562 9.4375 -5.15625 L 9.4375 -3.25 C 9.4375 -1.875 9.441406 -1.171875 9.453125 -1.140625 C 9.460938 -1.078125 9.472656 -1.035156 9.484375 -1.015625 C 9.503906 -1.003906 9.570312 -0.992188 9.6875 -0.984375 C 9.863281 -0.972656 9.945312 -0.941406 9.9375 -0.890625 C 9.914062 -0.785156 9.835938 -0.671875 9.703125 -0.546875 C 9.640625 -0.472656 9.609375 -0.425781 9.609375 -0.40625 C 9.617188 -0.382812 9.609375 -0.351562 9.578125 -0.3125 C 9.535156 -0.269531 9.429688 -0.203125 9.265625 -0.109375 C 9.097656 -0.0234375 8.953125 0.0351562 8.828125 0.078125 C 8.734375 0.117188 8.617188 0.144531 8.484375 0.15625 C 8.347656 0.175781 8.269531 0.179688 8.25 0.171875 C 8.238281 0.160156 8.203125 0.078125 8.140625 -0.078125 L 8.046875 -0.3125 L 8.046875 -2.296875 C 8.054688 -2.867188 8.054688 -3.304688 8.046875 -3.609375 C 8.046875 -3.921875 8.046875 -4.113281 8.046875 -4.1875 C 8.035156 -4.269531 8.023438 -4.332031 8.015625 -4.375 C 8.003906 -4.425781 7.984375 -4.472656 7.953125 -4.515625 C 7.867188 -4.609375 7.613281 -4.65625 7.1875 -4.65625 C 6.957031 -4.644531 6.765625 -4.609375 6.609375 -4.546875 C 6.585938 -4.535156 6.554688 -4.515625 6.515625 -4.484375 C 6.472656 -4.460938 6.429688 -4.441406 6.390625 -4.421875 C 6.234375 -4.296875 6.097656 -4.15625 5.984375 -4 C 5.929688 -3.914062 5.894531 -3.816406 5.875 -3.703125 C 5.851562 -3.648438 5.84375 -3.523438 5.84375 -3.328125 C 5.84375 -3.140625 5.84375 -2.878906 5.84375 -2.546875 C 5.84375 -2.160156 5.84375 -1.84375 5.84375 -1.59375 C 5.84375 -1.34375 5.851562 -1.171875 5.875 -1.078125 C 5.894531 -0.796875 5.941406 -0.566406 6.015625 -0.390625 C 6.085938 -0.222656 6.101562 -0.113281 6.0625 -0.0625 C 6.070312 -0.0507812 6.054688 -0.0351562 6.015625 -0.015625 C 5.984375 -0.00390625 5.695312 0 5.15625 0 C 4.632812 0 4.359375 -0.00390625 4.328125 -0.015625 C 4.242188 -0.0234375 4.238281 -0.0976562 4.3125 -0.234375 C 4.375 -0.367188 4.421875 -0.53125 4.453125 -0.71875 C 4.554688 -1.226562 4.59375 -2.109375 4.5625 -3.359375 C 4.550781 -3.691406 4.523438 -3.925781 4.484375 -4.0625 C 4.453125 -4.207031 4.390625 -4.320312 4.296875 -4.40625 C 4.222656 -4.476562 4.140625 -4.523438 4.046875 -4.546875 C 3.953125 -4.566406 3.78125 -4.578125 3.53125 -4.578125 L 3.1875 -4.578125 L 3.140625 -4.546875 C 3.117188 -4.523438 3.085938 -4.515625 3.046875 -4.515625 C 2.921875 -4.515625 2.789062 -4.445312 2.65625 -4.3125 C 2.53125 -4.1875 2.425781 -4.050781 2.34375 -3.90625 L 2.3125 -3.8125 L 2.3125 -2.046875 L 2.296875 -0.28125 L 2.25 -0.125 L 2.140625 0.078125 L 2.109375 0.15625 L 1.9375 0.15625 C 1.5625 0.15625 1.226562 0.0390625 0.9375 -0.1875 C 0.875 -0.25 0.773438 -0.363281 0.640625 -0.53125 C 0.492188 -0.71875 0.414062 -0.832031 0.40625 -0.875 C 0.40625 -0.882812 0.414062 -0.894531 0.4375 -0.90625 C 0.46875 -0.914062 0.53125 -0.929688 0.625 -0.953125 C 0.78125 -0.972656 0.875 -1.003906 0.90625 -1.046875 C 0.925781 -1.066406 0.929688 -1.625 0.921875 -2.71875 C 0.921875 -3.957031 0.90625 -4.75 0.875 -5.09375 C 0.851562 -5.3125 0.816406 -5.441406 0.765625 -5.484375 C 0.648438 -5.628906 0.625 -5.742188 0.6875 -5.828125 C 0.726562 -5.878906 0.765625 -5.914062 0.796875 -5.9375 C 0.835938 -5.96875 0.882812 -5.992188 0.9375 -6.015625 Z M 0.9375 -6.015625"/></g></g></g><g fill-opacity="1" fill="#ffffff"><g transform="translate(39.405738, 44.220579)"><g><path d="M 2.671875 -5.921875 C 2.816406 -5.921875 2.957031 -5.90625 3.09375 -5.875 C 3.226562 -5.851562 3.367188 -5.828125 3.515625 -5.796875 C 3.671875 -5.734375 3.816406 -5.664062 3.953125 -5.59375 C 4.097656 -5.519531 4.222656 -5.4375 4.328125 -5.34375 C 4.484375 -5.207031 4.566406 -5.050781 4.578125 -4.875 C 4.585938 -4.695312 4.519531 -4.539062 4.375 -4.40625 C 4.3125 -4.34375 4.210938 -4.253906 4.078125 -4.140625 C 3.953125 -4.023438 3.875 -3.96875 3.84375 -3.96875 C 3.820312 -3.96875 3.785156 -4.023438 3.734375 -4.140625 C 3.648438 -4.390625 3.492188 -4.582031 3.265625 -4.71875 C 3.035156 -4.851562 2.789062 -4.921875 2.53125 -4.921875 C 2.414062 -4.910156 2.316406 -4.894531 2.234375 -4.875 C 2.160156 -4.851562 2.097656 -4.816406 2.046875 -4.765625 C 1.847656 -4.585938 1.800781 -4.378906 1.90625 -4.140625 C 2.019531 -3.898438 2.316406 -3.675781 2.796875 -3.46875 C 3.097656 -3.34375 3.347656 -3.234375 3.546875 -3.140625 C 3.742188 -3.054688 3.90625 -2.976562 4.03125 -2.90625 C 4.164062 -2.84375 4.28125 -2.773438 4.375 -2.703125 C 4.46875 -2.640625 4.550781 -2.570312 4.625 -2.5 C 4.882812 -2.238281 5.003906 -1.929688 4.984375 -1.578125 C 4.972656 -1.265625 4.894531 -1 4.75 -0.78125 C 4.601562 -0.570312 4.421875 -0.398438 4.203125 -0.265625 C 3.984375 -0.128906 3.738281 -0.0351562 3.46875 0.015625 C 3.195312 0.0664062 2.929688 0.09375 2.671875 0.09375 C 2.535156 0.09375 2.359375 0.0820312 2.140625 0.0625 C 1.929688 0.0507812 1.71875 0.03125 1.5 0 C 1.28125 -0.03125 1.070312 -0.078125 0.875 -0.140625 C 0.6875 -0.203125 0.539062 -0.28125 0.4375 -0.375 C 0.382812 -0.425781 0.347656 -0.476562 0.328125 -0.53125 C 0.316406 -0.582031 0.3125 -0.710938 0.3125 -0.921875 C 0.3125 -1.078125 0.316406 -1.203125 0.328125 -1.296875 C 0.347656 -1.398438 0.367188 -1.484375 0.390625 -1.546875 C 0.441406 -1.671875 0.476562 -1.738281 0.5 -1.75 C 0.53125 -1.78125 0.582031 -1.753906 0.65625 -1.671875 C 0.71875 -1.566406 0.832031 -1.460938 1 -1.359375 C 1.164062 -1.265625 1.347656 -1.191406 1.546875 -1.140625 C 1.753906 -1.085938 1.957031 -1.039062 2.15625 -1 C 2.363281 -0.96875 2.535156 -0.953125 2.671875 -0.953125 C 2.921875 -0.953125 3.113281 -0.984375 3.25 -1.046875 C 3.382812 -1.117188 3.492188 -1.222656 3.578125 -1.359375 C 3.585938 -1.378906 3.597656 -1.410156 3.609375 -1.453125 C 3.617188 -1.492188 3.625 -1.535156 3.625 -1.578125 C 3.625 -1.703125 3.570312 -1.8125 3.46875 -1.90625 C 3.351562 -2.019531 3.113281 -2.148438 2.75 -2.296875 C 2.5625 -2.390625 2.375 -2.476562 2.1875 -2.5625 C 2.007812 -2.65625 1.828125 -2.742188 1.640625 -2.828125 C 1.328125 -2.984375 1.097656 -3.125 0.953125 -3.25 C 0.816406 -3.382812 0.707031 -3.53125 0.625 -3.6875 C 0.539062 -3.851562 0.5 -4.050781 0.5 -4.28125 C 0.5 -4.507812 0.535156 -4.703125 0.609375 -4.859375 C 0.765625 -5.148438 0.96875 -5.375 1.21875 -5.53125 C 1.425781 -5.664062 1.660156 -5.765625 1.921875 -5.828125 C 2.179688 -5.890625 2.429688 -5.921875 2.671875 -5.921875 Z M 2.671875 -5.921875"/></g></g></g><g fill-opacity="1" fill="#ffffff"><g transform="translate(44.721583, 44.220579)"><g><path d="M 0.9375 -10.109375 C 0.988281 -10.128906 1.085938 -10.125 1.234375 -10.09375 C 1.628906 -9.96875 1.921875 -9.851562 2.109375 -9.75 C 2.253906 -9.675781 2.34375 -9.59375 2.375 -9.5 C 2.414062 -9.414062 2.394531 -9.238281 2.3125 -8.96875 L 2.28125 -8.734375 L 2.28125 -5.34375 L 2.390625 -5.453125 C 2.628906 -5.640625 2.867188 -5.769531 3.109375 -5.84375 C 3.359375 -5.914062 3.628906 -5.953125 3.921875 -5.953125 C 4.546875 -5.953125 5.050781 -5.832031 5.4375 -5.59375 C 5.820312 -5.351562 6.09375 -4.910156 6.25 -4.265625 C 6.3125 -4.035156 6.34375 -3.847656 6.34375 -3.703125 C 6.351562 -3.648438 6.359375 -3.601562 6.359375 -3.5625 C 6.359375 -3.53125 6.363281 -3.5 6.375 -3.46875 C 6.382812 -3.425781 6.390625 -2.875 6.390625 -1.8125 L 6.40625 -0.28125 L 6.46875 -0.171875 C 6.53125 -0.046875 6.53125 0.0195312 6.46875 0.03125 C 6.457031 0.0390625 6.226562 0.046875 5.78125 0.046875 C 5.320312 0.0234375 5.085938 0.015625 5.078125 0.015625 C 5.046875 -0.00390625 5.03125 -0.0234375 5.03125 -0.046875 C 5.039062 -0.0664062 5.046875 -0.0859375 5.046875 -0.109375 C 5.046875 -0.128906 5.050781 -0.148438 5.0625 -0.171875 C 5.070312 -0.210938 5.078125 -0.734375 5.078125 -1.734375 C 5.078125 -2.234375 5.070312 -2.628906 5.0625 -2.921875 C 5.0625 -3.210938 5.054688 -3.398438 5.046875 -3.484375 C 5.003906 -4.046875 4.90625 -4.429688 4.75 -4.640625 C 4.59375 -4.921875 4.285156 -5.0625 3.828125 -5.0625 C 3.453125 -5.0625 3.132812 -4.984375 2.875 -4.828125 C 2.625 -4.679688 2.445312 -4.429688 2.34375 -4.078125 C 2.332031 -4.015625 2.328125 -3.835938 2.328125 -3.546875 C 2.328125 -3.265625 2.320312 -2.816406 2.3125 -2.203125 L 2.3125 -0.328125 L 2.265625 -0.171875 C 2.179688 0.078125 2.125 0.207031 2.09375 0.21875 C 2.007812 0.238281 1.847656 0.210938 1.609375 0.140625 C 1.492188 0.0859375 1.394531 0.046875 1.3125 0.015625 C 1.226562 -0.015625 1.148438 -0.0507812 1.078125 -0.09375 C 0.992188 -0.132812 0.929688 -0.191406 0.890625 -0.265625 C 0.867188 -0.328125 0.832031 -0.398438 0.78125 -0.484375 C 0.726562 -0.566406 0.671875 -0.664062 0.609375 -0.78125 C 0.472656 -1.019531 0.40625 -1.148438 0.40625 -1.171875 C 0.40625 -1.191406 0.492188 -1.210938 0.671875 -1.234375 C 0.804688 -1.234375 0.882812 -1.238281 0.90625 -1.25 L 0.953125 -1.296875 L 0.953125 -1.703125 C 0.960938 -1.828125 0.96875 -1.992188 0.96875 -2.203125 C 0.96875 -2.421875 0.96875 -2.707031 0.96875 -3.0625 C 0.96875 -3.425781 0.96875 -3.71875 0.96875 -3.9375 C 0.96875 -4.164062 0.960938 -4.328125 0.953125 -4.421875 C 0.941406 -4.640625 0.929688 -4.945312 0.921875 -5.34375 C 0.921875 -5.738281 0.910156 -6.238281 0.890625 -6.84375 C 0.878906 -7.03125 0.867188 -7.25 0.859375 -7.5 C 0.859375 -7.75 0.851562 -7.992188 0.84375 -8.234375 C 0.84375 -8.472656 0.835938 -8.679688 0.828125 -8.859375 C 0.828125 -9.046875 0.828125 -9.15625 0.828125 -9.1875 L 0.8125 -9.4375 L 0.75 -9.609375 C 0.675781 -9.742188 0.648438 -9.84375 0.671875 -9.90625 C 0.710938 -10.007812 0.800781 -10.078125 0.9375 -10.109375 Z M 0.9375 -10.109375"/></g></g></g><g fill-opacity="1" fill="#ffffff"><g transform="translate(51.93235, 44.220579)"><g><path d="M 2.859375 -5.96875 C 2.921875 -5.988281 3.109375 -6 3.421875 -6 C 3.796875 -5.976562 4.117188 -5.929688 4.390625 -5.859375 C 4.660156 -5.796875 4.960938 -5.644531 5.296875 -5.40625 C 5.941406 -4.925781 6.332031 -4.296875 6.46875 -3.515625 C 6.550781 -3.109375 6.539062 -2.695312 6.4375 -2.28125 C 6.25 -1.507812 5.875 -0.921875 5.3125 -0.515625 C 4.75 -0.117188 4.082031 0.078125 3.3125 0.078125 C 2.789062 0.078125 2.332031 -0.0195312 1.9375 -0.21875 C 1.539062 -0.425781 1.203125 -0.757812 0.921875 -1.21875 C 0.585938 -1.800781 0.425781 -2.484375 0.4375 -3.265625 C 0.445312 -3.578125 0.519531 -3.882812 0.65625 -4.1875 C 0.800781 -4.488281 0.984375 -4.757812 1.203125 -5 C 1.429688 -5.25 1.691406 -5.460938 1.984375 -5.640625 C 2.273438 -5.816406 2.566406 -5.925781 2.859375 -5.96875 Z M 3.40625 -5 C 3.164062 -5 2.957031 -4.96875 2.78125 -4.90625 C 2.601562 -4.851562 2.4375 -4.722656 2.28125 -4.515625 C 2.125 -4.296875 2.003906 -4.066406 1.921875 -3.828125 C 1.847656 -3.585938 1.8125 -3.320312 1.8125 -3.03125 C 1.8125 -2.851562 1.835938 -2.648438 1.890625 -2.421875 C 1.941406 -2.203125 2.015625 -1.988281 2.109375 -1.78125 C 2.210938 -1.570312 2.335938 -1.390625 2.484375 -1.234375 C 2.640625 -1.078125 2.8125 -0.972656 3 -0.921875 C 3.082031 -0.910156 3.210938 -0.90625 3.390625 -0.90625 C 3.566406 -0.90625 3.695312 -0.914062 3.78125 -0.9375 C 4.0625 -1.007812 4.300781 -1.140625 4.5 -1.328125 C 4.644531 -1.453125 4.757812 -1.601562 4.84375 -1.78125 C 4.9375 -1.96875 5.007812 -2.1875 5.0625 -2.4375 C 5.113281 -2.632812 5.128906 -2.847656 5.109375 -3.078125 C 5.085938 -3.628906 4.945312 -4.085938 4.6875 -4.453125 C 4.425781 -4.816406 4 -5 3.40625 -5 Z M 3.40625 -5"/></g></g></g><g fill-opacity="1" fill="#ffffff"><g transform="translate(58.874808, 44.220579)"><g><path d="M 1.203125 -8.234375 C 1.296875 -8.253906 1.535156 -8.265625 1.921875 -8.265625 L 2.5625 -8.265625 L 2.625 -8.21875 C 2.664062 -8.164062 2.679688 -8.125 2.671875 -8.09375 C 2.671875 -8.070312 2.648438 -8.019531 2.609375 -7.9375 L 2.546875 -7.8125 L 2.53125 -7.296875 C 2.519531 -7.117188 2.515625 -6.9375 2.515625 -6.75 C 2.515625 -6.5625 2.515625 -6.367188 2.515625 -6.171875 L 2.515625 -5.875 L 4.421875 -5.828125 C 4.484375 -5.785156 4.535156 -5.734375 4.578125 -5.671875 C 4.628906 -5.609375 4.675781 -5.550781 4.71875 -5.5 C 4.738281 -5.4375 4.753906 -5.351562 4.765625 -5.25 C 4.773438 -5.144531 4.765625 -5.082031 4.734375 -5.0625 C 4.734375 -5.050781 4.613281 -5.039062 4.375 -5.03125 C 4.144531 -5.019531 3.890625 -5.015625 3.609375 -5.015625 C 3.328125 -5.015625 3.066406 -5.015625 2.828125 -5.015625 C 2.597656 -5.015625 2.484375 -5.015625 2.484375 -5.015625 L 2.484375 -1.546875 C 2.484375 -1.421875 2.515625 -1.320312 2.578125 -1.25 L 2.71875 -1.125 L 2.8125 -1.09375 L 3 -1.109375 C 3.050781 -1.109375 3.101562 -1.101562 3.15625 -1.09375 C 3.207031 -1.09375 3.242188 -1.097656 3.265625 -1.109375 C 3.367188 -1.128906 3.460938 -1.175781 3.546875 -1.25 C 3.640625 -1.332031 3.722656 -1.421875 3.796875 -1.515625 C 3.878906 -1.617188 3.945312 -1.726562 4 -1.84375 C 4.050781 -1.957031 4.085938 -2.0625 4.109375 -2.15625 L 4.109375 -2.171875 C 4.117188 -2.210938 4.132812 -2.226562 4.15625 -2.21875 C 4.175781 -2.1875 4.210938 -2.15625 4.265625 -2.125 L 4.265625 -2.109375 C 4.503906 -1.867188 4.664062 -1.597656 4.75 -1.296875 L 4.78125 -1.140625 L 4.75 -1.015625 C 4.726562 -0.941406 4.695312 -0.859375 4.65625 -0.765625 C 4.613281 -0.679688 4.546875 -0.59375 4.453125 -0.5 C 4.265625 -0.28125 4.0625 -0.125 3.84375 -0.03125 C 3.625 0.0507812 3.367188 0.09375 3.078125 0.09375 C 2.691406 0.09375 2.390625 0.0507812 2.171875 -0.03125 C 1.953125 -0.113281 1.753906 -0.242188 1.578125 -0.421875 C 1.378906 -0.617188 1.253906 -0.804688 1.203125 -0.984375 C 1.191406 -1.035156 1.179688 -1.113281 1.171875 -1.21875 C 1.171875 -1.320312 1.171875 -1.46875 1.171875 -1.65625 C 1.171875 -1.820312 1.171875 -2.050781 1.171875 -2.34375 C 1.171875 -2.644531 1.175781 -3.007812 1.1875 -3.4375 C 1.195312 -3.851562 1.203125 -4.21875 1.203125 -4.53125 C 1.203125 -4.84375 1.203125 -5.003906 1.203125 -5.015625 L 0.28125 -5.03125 L 0.25 -5.078125 C 0.1875 -5.128906 0.160156 -5.226562 0.171875 -5.375 C 0.179688 -5.59375 0.265625 -5.734375 0.421875 -5.796875 L 0.5 -5.84375 L 1.234375 -5.84375 L 1.234375 -6.421875 C 1.242188 -6.796875 1.25 -7.085938 1.25 -7.296875 C 1.25 -7.503906 1.25 -7.628906 1.25 -7.671875 C 1.238281 -7.722656 1.234375 -7.757812 1.234375 -7.78125 C 1.234375 -7.8125 1.222656 -7.835938 1.203125 -7.859375 C 1.191406 -7.878906 1.175781 -7.898438 1.15625 -7.921875 C 1.144531 -7.941406 1.132812 -7.957031 1.125 -7.96875 C 1.09375 -8 1.078125 -8.035156 1.078125 -8.078125 C 1.066406 -8.160156 1.109375 -8.210938 1.203125 -8.234375 Z M 1.203125 -8.234375"/></g></g></g><g fill-opacity="1" fill="#ffffff"><g transform="translate(63.855268, 44.220579)"><g><path d="M 2.671875 -5.921875 C 2.816406 -5.921875 2.957031 -5.90625 3.09375 -5.875 C 3.226562 -5.851562 3.367188 -5.828125 3.515625 -5.796875 C 3.671875 -5.734375 3.816406 -5.664062 3.953125 -5.59375 C 4.097656 -5.519531 4.222656 -5.4375 4.328125 -5.34375 C 4.484375 -5.207031 4.566406 -5.050781 4.578125 -4.875 C 4.585938 -4.695312 4.519531 -4.539062 4.375 -4.40625 C 4.3125 -4.34375 4.210938 -4.253906 4.078125 -4.140625 C 3.953125 -4.023438 3.875 -3.96875 3.84375 -3.96875 C 3.820312 -3.96875 3.785156 -4.023438 3.734375 -4.140625 C 3.648438 -4.390625 3.492188 -4.582031 3.265625 -4.71875 C 3.035156 -4.851562 2.789062 -4.921875 2.53125 -4.921875 C 2.414062 -4.910156 2.316406 -4.894531 2.234375 -4.875 C 2.160156 -4.851562 2.097656 -4.816406 2.046875 -4.765625 C 1.847656 -4.585938 1.800781 -4.378906 1.90625 -4.140625 C 2.019531 -3.898438 2.316406 -3.675781 2.796875 -3.46875 C 3.097656 -3.34375 3.347656 -3.234375 3.546875 -3.140625 C 3.742188 -3.054688 3.90625 -2.976562 4.03125 -2.90625 C 4.164062 -2.84375 4.28125 -2.773438 4.375 -2.703125 C 4.46875 -2.640625 4.550781 -2.570312 4.625 -2.5 C 4.882812 -2.238281 5.003906 -1.929688 4.984375 -1.578125 C 4.972656 -1.265625 4.894531 -1 4.75 -0.78125 C 4.601562 -0.570312 4.421875 -0.398438 4.203125 -0.265625 C 3.984375 -0.128906 3.738281 -0.0351562 3.46875 0.015625 C 3.195312 0.0664062 2.929688 0.09375 2.671875 0.09375 C 2.535156 0.09375 2.359375 0.0820312 2.140625 0.0625 C 1.929688 0.0507812 1.71875 0.03125 1.5 0 C 1.28125 -0.03125 1.070312 -0.078125 0.875 -0.140625 C 0.6875 -0.203125 0.539062 -0.28125 0.4375 -0.375 C 0.382812 -0.425781 0.347656 -0.476562 0.328125 -0.53125 C 0.316406 -0.582031 0.3125 -0.710938 0.3125 -0.921875 C 0.3125 -1.078125 0.316406 -1.203125 0.328125 -1.296875 C 0.347656 -1.398438 0.367188 -1.484375 0.390625 -1.546875 C 0.441406 -1.671875 0.476562 -1.738281 0.5 -1.75 C 0.53125 -1.78125 0.582031 -1.753906 0.65625 -1.671875 C 0.71875 -1.566406 0.832031 -1.460938 1 -1.359375 C 1.164062 -1.265625 1.347656 -1.191406 1.546875 -1.140625 C 1.753906 -1.085938 1.957031 -1.039062 2.15625 -1 C 2.363281 -0.96875 2.535156 -0.953125 2.671875 -0.953125 C 2.921875 -0.953125 3.113281 -0.984375 3.25 -1.046875 C 3.382812 -1.117188 3.492188 -1.222656 3.578125 -1.359375 C 3.585938 -1.378906 3.597656 -1.410156 3.609375 -1.453125 C 3.617188 -1.492188 3.625 -1.535156 3.625 -1.578125 C 3.625 -1.703125 3.570312 -1.8125 3.46875 -1.90625 C 3.351562 -2.019531 3.113281 -2.148438 2.75 -2.296875 C 2.5625 -2.390625 2.375 -2.476562 2.1875 -2.5625 C 2.007812 -2.65625 1.828125 -2.742188 1.640625 -2.828125 C 1.328125 -2.984375 1.097656 -3.125 0.953125 -3.25 C 0.816406 -3.382812 0.707031 -3.53125 0.625 -3.6875 C 0.539062 -3.851562 0.5 -4.050781 0.5 -4.28125 C 0.5 -4.507812 0.535156 -4.703125 0.609375 -4.859375 C 0.765625 -5.148438 0.96875 -5.375 1.21875 -5.53125 C 1.425781 -5.664062 1.660156 -5.765625 1.921875 -5.828125 C 2.179688 -5.890625 2.429688 -5.921875 2.671875 -5.921875 Z M 2.671875 -5.921875"/></g></g></g></svg>