<svg version="1.0" preserveAspectRatio="xMidYMid meet" viewBox="112.19024999999999 49.1999988192 165.75 118.499997156" zoomAndPan="magnify" xmlns:xlink="http://www.w3.org/1999/xlink" xmlns="http://www.w3.org/2000/svg" style="max-height: 500px" width="165.75" height="118.499997156"><defs><clipPath id="cf84f7dfcb"><path clip-rule="nonzero" d="M 117.761719 57.039062 L 267.761719 57.039062 L 267.761719 168 L 117.761719 168 Z M 117.761719 57.039062"/></clipPath><clipPath id="0314aa5fd4"><path clip-rule="nonzero" d="M 123.75 226.875 L 273.75 226.875 L 273.75 337.875 L 123.75 337.875 Z M 123.75 226.875"/></clipPath></defs><g clip-path="url(#cf84f7dfcb)"><path fill-rule="nonzero" fill-opacity="1" d="M 142.800781 57.039062 C 129.054688 57.039062 117.820312 68.269531 117.820312 82.015625 L 117.820312 142.683594 C 117.820312 156.429688 129.054688 167.664062 142.800781 167.664062 L 242.71875 167.664062 C 256.464844 167.664062 267.699219 156.429688 267.699219 142.683594 L 267.699219 82.015625 C 267.699219 68.269531 256.464844 57.039062 242.71875 57.039062 Z M 142.800781 67.742188 L 242.71875 67.742188 C 250.71875 67.742188 256.996094 74.015625 256.996094 82.015625 L 256.996094 142.683594 C 256.996094 150.683594 250.71875 156.957031 242.71875 156.957031 L 142.800781 156.957031 C 134.800781 156.957031 128.527344 150.683594 128.527344 142.683594 L 128.527344 82.015625 C 128.527344 74.015625 134.800781 67.742188 142.800781 67.742188 Z M 180.4375 83.800781 C 180.078125 83.789062 179.722656 83.816406 179.371094 83.875 C 179.015625 83.9375 178.671875 84.03125 178.339844 84.160156 C 178.003906 84.289062 177.6875 84.453125 177.382812 84.644531 C 177.082031 84.839844 176.800781 85.058594 176.542969 85.308594 C 176.285156 85.558594 176.058594 85.832031 175.855469 86.128906 C 175.652344 86.421875 175.480469 86.738281 175.339844 87.066406 C 175.199219 87.398438 175.09375 87.738281 175.023438 88.089844 C 174.953125 88.441406 174.917969 88.796875 174.917969 89.15625 L 174.917969 135.546875 C 174.914062 135.875 174.945312 136.203125 175.003906 136.523438 C 175.0625 136.847656 175.148438 137.164062 175.265625 137.472656 C 175.382812 137.78125 175.527344 138.074219 175.699219 138.355469 C 175.867188 138.636719 176.0625 138.902344 176.285156 139.144531 C 176.503906 139.390625 176.742188 139.613281 177.003906 139.816406 C 177.265625 140.015625 177.542969 140.191406 177.835938 140.339844 C 178.128906 140.492188 178.433594 140.613281 178.75 140.707031 C 179.0625 140.800781 179.386719 140.863281 179.714844 140.898438 C 180.816406 141.019531 181.859375 140.8125 182.835938 140.285156 L 225.65625 117.089844 C 226.082031 116.859375 226.46875 116.578125 226.820312 116.246094 C 227.167969 115.910156 227.464844 115.535156 227.714844 115.121094 C 227.960938 114.707031 228.148438 114.265625 228.277344 113.800781 C 228.40625 113.335938 228.46875 112.859375 228.46875 112.378906 C 228.46875 111.894531 228.40625 111.421875 228.277344 110.957031 C 228.148438 110.488281 227.960938 110.050781 227.714844 109.632812 C 227.464844 109.21875 227.167969 108.84375 226.820312 108.511719 C 226.46875 108.175781 226.082031 107.894531 225.65625 107.667969 L 182.835938 84.472656 C 182.089844 84.058594 181.289062 83.832031 180.4375 83.800781 Z M 185.625 98.1875 L 211.828125 112.351562 L 185.625 126.570312 Z M 185.625 98.1875" fill="#ffffff"/></g><g clip-path="url(#0314aa5fd4)"><path fill-rule="nonzero" fill-opacity="1" d="M 148.789062 226.875 C 135.042969 226.875 123.808594 238.109375 123.808594 251.855469 L 123.808594 312.519531 C 123.808594 326.265625 135.042969 337.5 148.789062 337.5 L 248.707031 337.5 C 262.453125 337.5 273.6875 326.265625 273.6875 312.519531 L 273.6875 251.855469 C 273.6875 238.109375 262.453125 226.875 248.707031 226.875 Z M 148.789062 237.582031 L 248.707031 237.582031 C 256.707031 237.582031 262.980469 243.855469 262.980469 251.855469 L 262.980469 312.519531 C 262.980469 320.519531 256.707031 326.792969 248.707031 326.792969 L 148.789062 326.792969 C 140.789062 326.792969 134.515625 320.519531 134.515625 312.519531 L 134.515625 251.855469 C 134.515625 243.855469 140.789062 237.582031 148.789062 237.582031 Z M 186.425781 253.640625 C 186.066406 253.628906 185.710938 253.652344 185.359375 253.714844 C 185.003906 253.773438 184.660156 253.867188 184.328125 254 C 183.992188 254.128906 183.671875 254.289062 183.371094 254.484375 C 183.070312 254.675781 182.789062 254.898438 182.53125 255.148438 C 182.273438 255.398438 182.046875 255.667969 181.84375 255.964844 C 181.640625 256.261719 181.46875 256.574219 181.328125 256.90625 C 181.1875 257.234375 181.082031 257.574219 181.011719 257.925781 C 180.941406 258.277344 180.90625 258.632812 180.90625 258.992188 L 180.90625 305.382812 C 180.902344 305.710938 180.933594 306.039062 180.992188 306.363281 C 181.050781 306.6875 181.136719 307.003906 181.253906 307.3125 C 181.371094 307.617188 181.515625 307.914062 181.683594 308.195312 C 181.855469 308.476562 182.050781 308.738281 182.273438 308.984375 C 182.492188 309.230469 182.730469 309.453125 182.992188 309.652344 C 183.253906 309.855469 183.53125 310.03125 183.824219 310.179688 C 184.117188 310.328125 184.421875 310.449219 184.738281 310.542969 C 185.050781 310.636719 185.375 310.703125 185.699219 310.734375 C 186.804688 310.855469 187.847656 310.652344 188.824219 310.121094 L 231.644531 286.925781 C 232.070312 286.699219 232.457031 286.417969 232.808594 286.082031 C 233.15625 285.75 233.453125 285.375 233.703125 284.960938 C 233.949219 284.542969 234.136719 284.105469 234.265625 283.640625 C 234.394531 283.171875 234.457031 282.699219 234.457031 282.214844 C 234.457031 281.734375 234.394531 281.257812 234.265625 280.792969 C 234.136719 280.328125 233.949219 279.886719 233.703125 279.472656 C 233.453125 279.058594 233.15625 278.683594 232.808594 278.347656 C 232.457031 278.015625 232.070312 277.734375 231.644531 277.503906 L 188.824219 254.308594 C 188.078125 253.894531 187.277344 253.671875 186.425781 253.640625 Z M 191.613281 268.023438 L 217.816406 282.1875 L 191.613281 296.40625 Z M 191.613281 268.023438" fill="#ffffff"/></g></svg>